<!-- 

The challenge

Your task is to draw the Warm Welcome Hat in proportion, in a language of your choice and having an exact construction as appearing on this page.

As always, you can render the hat to a file or screen using vector or raster graphics. If your output is rasterised, your image must have dimensions of 400x400 pixels or more.

Moreover, the actual contents of the hat (the area of the bounding rectangle of the colored parts of the image) should cover more than 40% of your output image.
Specifications

The image below lists out various dimensions of the hat. All dimensions are in the unit, for example, pixels. All border radius in the image are to be drawn with a radius of 13 units.

https://i.stack.imgur.com/5qddO.jpg

Colors:

    Red in the star and circular ring - rgb(255, 28, 34)
    Yellow in the circle - rgb(255, 202, 87)
    Lightest grey - rgb(88, 88, 92)
    Darkest grey - rgb(31, 26, 26)
    Middle grey - rgb(64, 64, 64)

Scoring

This is code golf, so the shortest answer (in bytes) wins.

As a word of warning, using existing compression (like embedding a compressed GIF) falls into several standard loopholes.

-->


<svg xmlns="http://www.w3.org/2000/svg" xml:space="preserve" viewBox="0 0 192 192" version="1.1" y="0px" x="0px" xmlns:xlink="http://www.w3.org/1999/xlink" enable-background="new 0 0 200 200" width="192" height="192">
  <g transform="rotate(0 3.14 2.18) translate(-19.3559837383998 39.82292241735921) scale(1.1435537421402706)">
    <path d="m87.3 12.6c-2.8-5.6-9.7-7.9-15.3-5l-36.1 18.2c-4 2-6.3 6-6.2 10.2v36.9c0 6.3 5.1 11.4 11.4 11.4s11.4-5.1 11.4-11.4v-30l29.9-15.1c5.5-2.8 7.7-9.6 4.9-15.2z" fill="#231F20" />
    <path d="m114.7 12.6c2.8-5.6 9.7-7.9 15.3-5l36.1 18.2c4 2 6.3 6 6.2 10.2v36.9c0 6.3-5.1 11.4-11.4 11.4s-11.4-5.1-11.4-11.4v-30l-29.9-15.1c-5.5-2.8-7.7-9.6-4.9-15.2z" fill="#231F20" />
    <ellipse cy="43" cx="101" rx="53" ry="27.4" fill="#424143" />
    <path d="m164.2 81.2c0 6-4.9 10.9-10.9 10.9h-104.7c-6 0-10.9-4.9-10.9-10.9v-43.5c0-6 4.9-10.9 10.9-10.9h104.7c6 0 10.9 4.9 10.9 10.9v43.5z" fill="#424143" />
    <path d="m156.1 82.6c0 5.2-4.2 9.5-9.5 9.5h-91.2c-5.2 0-9.5-4.2-9.5-9.5v-46.3c0-5.2 4.2-9.5 9.5-9.5h91.2c5.2 0 9.5 4.2 9.5 9.5v46.3z" fill="#595A5C" />
    <circle cy="59.4" cx="101" r="22" fill="#EC2227" />
    <circle cy="59.4" cx="101" r="17.8" fill="#F9C960" />
    <polygon points="106.3 61.5 114.8 55.3 104.3 55.3 101 45.3 97.7 55.3 87.2 55.3 95.7 61.5 92.5 71.5 101 65.3 109.5 71.5" fill="#EC2227" />
  </g>
</svg>
